<svg width="568" height="201" viewBox="0 0 568 201" fill="none" xmlns="http://www.w3.org/2000/svg">
<path d="M64.1114 198.188L64.0126 197.558C61.4497 197.465 57.6239 197.558 53.2838 197.682C49.0919 197.789 44.3733 197.913 39.519 197.913C24.5817 197.913 8.38568 196.741 2.42889 190.367C1.64636 189.578 1.02606 188.62 0.607971 187.556C0.189941 186.492 -0.0166016 185.345 0.00177002 184.189C0.219788 166.528 15.2228 144.823 32.5502 119.687C34.0229 117.557 35.5163 115.386 37.0137 113.203C36.8286 113.038 36.627 112.847 36.3925 112.621C36.158 112.395 35.8372 112.093 35.4752 111.76C34.71 111.054 35.3229 110.051 36.6763 108.036C37.5526 106.704 38.6757 105.164 39.4985 104.041C39.9921 103.353 40.4611 102.71 40.5516 102.554C40.8971 101.982 41.1934 101.48 41.4525 101.036C42.6291 99.0479 43.098 98.2223 43.9948 98.0492C44.6777 97.916 45.229 98.2667 46.0229 98.8925C48.1663 93.0203 46.1052 88.4086 43.6204 82.8604C40.3952 75.6698 36.7545 67.5294 41.074 54.3025C39.6877 50.4231 39.3709 46.5127 40.2307 42.8198C41.7117 36.4815 46.4014 31.7899 53.1316 29.9479C58.0681 28.6163 63.4819 28.8427 69.1754 30.556C70.058 30.2335 70.9798 30.0526 71.9111 30.0189C73.8857 29.9879 75.3914 30.7602 76.3212 32.3004C76.719 32.3313 77.1189 32.2939 77.5059 32.1894C79.4741 31.7427 81.5159 31.8513 83.4339 32.5045C85.7047 33.2769 86.2642 34.6617 86.7579 35.8823C87.0089 36.6429 87.4168 37.332 87.9508 37.8974C88.0085 37.9551 88.2101 38.1105 88.3911 38.2481C89.7034 39.2556 92.7105 41.5681 93.0438 45.0791C94.6454 46.529 96.2415 48.0707 97.8322 49.7041C98.3777 49.6257 98.9274 49.5856 99.4778 49.5842C105.982 49.5842 111.276 54.9505 111.276 61.5418C111.276 62.6659 111.119 63.7835 110.811 64.8574C115.386 71.755 117.603 78.6748 117.369 85.2172C120.738 90.4992 120.014 96.833 118.603 101.64C119.364 102.843 120.248 104.086 121.248 105.453C122.482 107.153 123.864 109.075 125.218 111.267L125.654 111.982L156.133 95.7278L155.409 94.2098C153.694 90.6057 149.181 86.2648 144.405 81.6664C135.675 73.2686 125.818 63.7833 125.629 53.0153C120.849 52.7001 116.369 48.2172 114.645 43.7431C113.868 41.7279 111.416 37.2627 108.524 32.2338L107.454 31.5103C102.407 28.097 94.7798 22.9349 96.9724 18.2522C97.2002 17.782 97.5396 17.3855 97.9559 17.1032C98.3722 16.8209 98.8506 16.6629 99.342 16.6455C97.7458 13.9512 96.4911 11.834 95.8 10.6001C92.945 5.52235 91.8138 2.98346 92.6571 1.39444C93.3029 0.182707 94.8168 -0.0391977 97.0588 0.00518826C100.276 0.0628899 109.075 0.289255 111.161 0.639903C114.143 1.13703 114.682 1.75843 118.685 7.29779C119.064 7.82154 119.454 8.37191 119.849 8.94449C128.262 10.4137 131.413 10.9685 136.222 20.2185C136.667 21.0752 137.045 21.8164 137.407 22.4822C137.851 23.3211 138.23 24.0401 138.567 24.7015C161.259 25.5226 197.555 30.2586 206.235 31.7633C209.658 32.3581 212.612 32.7353 215.216 33.0638C225.142 34.3288 230.609 35.0212 239.829 45.048C243.724 49.278 245.637 54.6132 245.514 60.8982C245.3 71.9148 238.66 83.4019 233.995 88.0402C233.131 88.9013 229.881 92.4788 225.722 96.9751C216.948 106.536 211.003 112.954 206.939 117.237C211.641 117.051 216.446 116.753 221.39 116.296C253.441 113.336 273.109 110.637 273.303 110.61L273.632 110.566C277.371 104.494 280.522 98.8881 283.624 93.3709C291.469 79.4071 298.882 66.2157 314.367 49.025C320.344 42.3671 327.699 39.016 336.219 39.0026H336.264C348.914 39.0026 363.568 46.8501 375.477 60.0016C397.231 84.0233 420.092 120.366 436.078 146.683C469.568 151.508 500.315 154.948 523.599 154.948H524.422V155.857C524.422 157.153 524.442 158.463 524.467 159.781C527.223 160.096 529.317 160.358 529.967 160.442C529.967 159.555 530.021 159.422 530.099 159.297C534.077 152.764 535.797 144.415 537.458 136.336C540.227 122.905 542.843 110.207 555.798 110.207C556.012 110.207 556.209 110.207 556.444 110.207C557.468 110.238 558.353 110.269 560.759 132.315C562.092 144.566 563.519 160.278 564.667 172.924C565.794 185.352 566.769 196.067 567.16 197.975V198.055C567.193 198.317 567.16 198.974 566.272 199.338C564.433 200.084 556.97 200.341 550.52 200.341H548.92C534.015 200.239 533.402 199.254 533.139 198.832C533.057 198.694 532.979 198.57 532.452 192.618C530.885 192.742 528.828 192.88 526.108 193.031C526.154 194.491 526.178 195.911 526.178 197.283V198.171H278.832H277.935H262.714L262.66 197.904L206.585 196.937L64.1114 198.188ZM531.387 179.267C530.794 172.072 530.44 167.518 530.243 164.619C529.864 163.589 529.593 162.804 529.42 162.209C527.803 162.005 526.17 161.805 524.545 161.619C524.706 167.154 525.055 172.8 525.401 178.312C525.681 182.817 525.948 187.15 526.096 191.184C528.437 191.047 530.588 190.909 532.341 190.78C532.102 188.051 531.798 184.309 531.387 179.267ZM522.822 159.595C522.822 158.649 522.789 157.708 522.785 156.767C499.858 156.687 469.922 153.363 437.328 148.698L435.119 148.383C412.954 145.183 389.616 141.383 366.456 137.584L363.922 137.167L360.219 136.554C353.974 135.527 347.804 134.517 341.707 133.522L339.938 133.234C326.642 131.068 313.791 129.017 301.68 127.206C301.474 127.455 301.268 127.695 301.083 127.908L300.199 126.989C291.333 125.657 282.871 124.485 274.936 123.487L276.659 156.284C280.522 156.856 300.692 158.578 323.557 160.394L326.321 160.611C348.984 162.387 373.708 164.242 387.531 165.121L390.102 165.281C393.994 165.516 396.717 165.649 397.861 165.649C412.432 165.649 429.434 166.475 446.704 167.487L448.798 167.611C453.734 167.904 458.712 168.21 463.64 168.499C476.467 169.289 489.557 170.096 501.862 170.638L502.684 170.673L503.528 170.709C510.455 171.006 517.103 171.206 523.315 171.273C523.13 167.979 522.974 164.677 522.883 161.41C522.883 161.104 522.883 160.802 522.883 160.522L522.822 159.595ZM123.823 112.253C122.507 110.113 121.199 108.302 119.932 106.545C119.224 105.568 118.545 104.627 117.924 103.704C117.277 105.488 116.487 107.208 115.563 108.844L115.505 108.804C117.718 111.267 119.134 115.701 120.388 121.121C122.522 120.568 124.671 120.084 126.835 119.67C126.817 118.403 126.544 117.155 126.037 116.012C125.321 114.743 124.568 113.482 123.811 112.253H123.823ZM1.70081 184.224C1.68213 185.139 1.84412 186.048 2.17609 186.889C2.50806 187.731 3.00232 188.487 3.62604 189.107C11.0309 196.985 37.4539 196.293 53.255 195.88C56.5461 195.791 59.3681 195.72 61.6637 195.72C62.4124 195.72 63.0994 195.72 63.7206 195.72H64.1936C64.0291 194.229 63.7041 191.304 63.2886 187.669C62.5769 181.424 61.606 173.084 60.7462 166.333C60.1826 161.921 59.6643 158.188 59.2982 156.168H59.1542L58.3314 156.23L57.484 156.292C54.6578 156.497 51.5807 156.736 50.9019 156.829C50.7 156.98 50.4719 157.084 50.2316 157.137C49.9912 157.189 49.7435 157.189 49.5032 157.136C47.7261 161.574 45.9695 166.261 45.772 167.402L44.1265 167.074C44.3651 165.676 46.9239 158.902 49.1 153.598C49.314 152.932 49.6184 152.125 50.0257 151.144C51.0007 148.804 52.5433 145.564 54.6085 141.512C57.7884 135.267 61.7459 128.019 64.8271 122.426C63.4878 122.235 62.1617 121.949 60.8573 121.569C54.5961 119.856 43.4929 115.502 41.3373 110.238C40.8287 110.933 40.3536 111.656 39.9139 112.404C39.5026 113.078 39.2228 113.558 38.7662 113.735C37.1207 116.101 35.5245 118.445 33.9366 120.748C16.7491 145.671 1.90234 167.158 1.68842 184.224H1.70081ZM309.636 166.945C334.146 168.467 374.634 170.585 393.648 171.384L396.322 171.495C399.827 171.637 402.32 171.712 403.447 171.712C418.512 171.712 434.798 172.777 450.575 173.816L451.069 173.847L452.714 173.954C469.321 175.045 486.381 176.128 501.788 175.92H502.631H503.474H503.808C509.978 175.791 513.833 176.43 517.938 177.109C519.728 177.402 521.571 177.709 523.698 177.971C523.599 176.368 523.496 174.753 523.402 173.132C517.165 173.07 510.464 172.866 503.495 172.573L502.672 172.538L501.829 172.498C489.487 171.956 476.381 171.166 463.529 170.358C459.004 170.079 454.479 169.799 449.954 169.528L447.856 169.404C430.166 168.361 412.74 167.495 397.856 167.495C397.173 167.495 395.075 167.384 391.895 167.189L389.296 167.025C375.634 166.137 348.363 164.166 323.939 162.267L320.459 161.996C299.664 160.363 281.58 158.836 276.771 158.161L277.116 164.783C278.832 164.952 281.16 164.979 282.937 164.996C285.702 165.028 288.314 165.054 289.647 165.44C290.309 165.631 294.542 165.977 301.017 166.417C303.531 166.559 306.439 166.745 309.623 166.945H309.636ZM192.071 141.334C191.483 141.334 190.907 141.334 190.327 141.37C188.003 141.441 185.753 141.61 183.634 141.814C179.129 142.289 175.846 141.951 173.419 140.926C173.031 140.768 172.654 140.583 172.288 140.371C171.968 140.193 171.657 139.994 171.358 139.776C167.17 136.669 166.541 130.562 165.739 122.808C165.611 121.565 165.48 120.278 165.327 118.951C165.295 118.649 165.258 118.342 165.221 118.036C165.184 117.73 165.142 117.433 165.101 117.126C164.846 115.16 164.525 113.132 164.097 111.05C163.609 108.665 162.967 106.321 162.176 104.032C161.248 101.366 160.07 98.8081 158.663 96.3981C158.568 96.2338 158.474 96.0696 158.371 95.9054L158.206 96.0252L156.972 96.9129L157.153 97.2192C158.576 99.6175 159.757 102.172 160.679 104.84C162.004 108.814 162.92 112.932 163.41 117.122C163.452 117.424 163.493 117.73 163.53 118.01L163.641 118.919C163.801 120.304 163.941 121.667 164.081 122.999C164.834 130.291 165.496 136.692 169.355 140.407C169.598 140.642 169.853 140.851 170.12 141.077C170.387 141.303 170.725 141.521 171.05 141.729C173.839 143.478 177.87 144.219 183.803 143.594C185.962 143.367 188.262 143.199 190.632 143.15C191.203 143.15 191.779 143.123 192.359 143.119C202.747 143.048 214.232 145.054 221.604 152.604C229.371 160.558 229.972 170.429 226.064 175.378C222.156 180.327 213.311 181.592 199.916 170.598C196.705 167.912 193.062 165.887 189.171 164.624C188.616 164.446 188.064 164.291 187.526 164.149C177.747 161.632 167.849 164.309 158.182 166.932C154.274 167.997 150.431 169.04 146.663 169.71C145.717 169.879 144.775 170.025 143.841 170.154C136.671 171.042 129.854 170.238 123.544 165.161C112.305 156.115 114.115 147.406 117.064 138.929C117.196 138.542 117.336 138.156 117.476 137.766L117.887 136.594L117.986 136.323C118.9 133.944 119.684 131.509 120.335 129.031C120.775 127.311 120.989 125.533 120.972 123.749C120.972 123.447 120.948 123.149 120.923 122.861C120.898 122.572 120.861 122.235 120.816 121.924C120.779 121.702 120.746 121.481 120.701 121.25L120.434 121.316L119.055 121.64C119.101 121.88 119.138 122.12 119.171 122.359C119.216 122.675 119.249 122.99 119.265 123.305C119.265 123.531 119.265 123.749 119.265 123.984C119.298 127.659 117.883 131.569 116.385 135.666C116.155 136.292 115.929 136.922 115.703 137.557C115.567 137.939 115.431 138.321 115.291 138.702C115.151 139.084 115.04 139.452 114.917 139.83C112.181 148.205 110.992 157.38 122.486 166.63C129.99 172.671 138.008 173.075 146.416 171.619C147.367 171.455 148.317 171.268 149.296 171.064C152.336 170.407 155.421 169.573 158.552 168.72C167.849 166.199 177.364 163.621 186.686 165.862C187.246 166 187.809 166.155 188.373 166.328C192.18 167.505 195.745 169.454 198.876 172.072C206.626 178.445 213.044 180.864 217.992 180.864C222.189 180.864 225.327 179.129 227.331 176.586C231.687 171.068 231.56 160.332 222.752 151.286C214.928 143.301 202.862 141.223 192.059 141.334H192.071ZM78.1682 99.4829C78.1353 99.7492 78.0942 100.011 78.0448 100.269C84.8614 109.723 93.1919 120.975 100.177 129.026C106.103 125.833 112.328 123.332 118.747 121.565C117.513 116.345 116.151 111.978 114.123 109.882C113.74 109.807 112.704 109.678 111.613 109.541C104.443 108.649 86.1326 106.354 78.1559 99.4829H78.1682ZM69.3564 117.752C69.0849 118.276 68.7271 118.924 68.2704 119.723L67.8261 120.531C67.5958 120.975 67.3531 121.387 67.1103 121.827C67.0743 121.923 67.0244 122.013 66.9622 122.093C63.8358 127.774 59.8535 135.04 56.5008 141.57C55.1309 144.233 54.0654 146.399 53.2303 148.165L53.3332 148.254C53.0329 148.667 51.8933 151.286 50.5892 154.468C50.507 154.73 50.4493 154.943 50.4082 155.116C50.8649 155.01 52.2347 154.872 57.2043 154.513C57.2043 154.464 57.2043 154.419 57.2043 154.384L57.1261 153.7L57.7102 153.43C57.9324 153.327 80.1511 143.03 87.0252 137.668C90.7118 134.786 94.5845 132.192 98.6139 129.905C91.9207 122.169 84.162 111.707 77.4606 102.448C76.7202 104.561 75.5642 106.474 74.3794 108.431C73.3582 110.038 72.444 111.722 71.6437 113.469C71.4257 113.926 70.6852 115.311 69.3441 117.752H69.3564ZM45.1343 82.0703C47.7878 87.9914 50.3095 93.6106 47.0143 100.943L47.2077 100.992C47.1748 101.138 46.3849 102.483 45.4182 104.019C45.7308 104.254 46.0723 104.543 46.4672 104.876C49.388 107.33 56.2211 113.069 69.015 114.761C69.591 113.695 69.9858 112.954 70.101 112.683C70.9355 110.856 71.8896 109.095 72.956 107.415C74.3095 105.173 75.5806 103.069 76.1812 100.672C76.2778 100.29 76.3547 99.9014 76.4117 99.5095C76.4789 99.0689 76.5201 98.6242 76.535 98.1779C76.535 97.9205 76.535 97.6586 76.535 97.3923C76.535 97.0727 76.5022 96.7443 76.4651 96.4069C76.4281 96.0696 76.3828 95.7678 76.3252 95.4393C75.9181 93.4429 75.2241 91.5274 74.2683 89.7624C73.8569 88.9634 72.4871 87.7916 70.8004 86.4778L70.1051 85.9407L69.4223 85.4214L68.6242 84.8178C67.5176 83.9833 66.3328 83.0867 65.1398 82.1546C64.5721 81.7019 64.0058 81.2388 63.4408 80.7653L63.3009 80.6499L62.6715 80.1084C62.4494 79.9176 62.2314 79.7223 62.0174 79.5314L61.6718 79.2163L61.3757 78.9411C58.9074 76.633 56.7312 74.0853 55.5834 71.3511C54.9922 70.0095 54.6926 68.54 54.7072 67.0545C54.8059 62.6781 53.473 60.0238 52.2389 59.4068C52.0039 59.2896 51.743 59.2461 51.4862 59.2815C51.2294 59.3168 50.9869 59.4295 50.7867 59.6066C50.7813 59.8007 50.7292 59.9899 50.6354 60.1557C50.5416 60.3215 50.4094 60.4581 50.2519 60.552C50.2149 61.0802 50.1902 61.4974 50.1943 61.6395C50.2231 62.8823 50.3013 64.0629 50.4288 65.1903C50.5527 66.3149 50.7368 67.4309 50.98 68.5326C51.5711 71.1601 52.5652 73.6625 53.9214 75.9361L52.5022 76.9171C50.5444 73.6331 49.2895 69.9198 48.8286 66.047C48.7092 65.1593 48.627 64.2005 48.5694 63.2285C48.5406 62.7225 48.52 62.2076 48.5076 61.6794C48.5076 61.2355 48.6187 59.6598 48.7792 57.6358C48.7792 57.4849 48.8038 57.334 48.8162 57.192C48.4747 56.4596 47.8947 56.18 47.29 55.8915C47.0966 55.7983 46.9033 55.7006 46.7181 55.5897C46.496 56.1267 46.3068 56.5661 46.2574 56.7437V56.7747C45.99 57.6625 45.7638 58.5058 45.5663 59.3403C45.3688 60.1747 45.2208 60.9248 45.0974 61.6972C45.0974 61.7682 45.0973 61.8436 45.0685 61.9146C44.9387 62.754 44.8481 63.5999 44.7971 64.4491C44.6563 66.8329 44.8434 69.2261 45.3524 71.5508L43.7068 71.9636C42.834 67.9296 42.8481 63.7313 43.748 59.7042C43.9125 58.9201 44.1073 58.1196 44.3322 57.3029C44.4227 56.9834 44.5173 56.6594 44.616 56.3353C44.616 56.2909 44.6407 56.2466 44.6571 56.2022C44.7435 55.9137 45.0685 55.1236 45.521 54.0539V54.0051L45.4922 53.9563C45.2511 53.4973 44.9265 53.0957 44.5378 52.7756C44.4022 52.6585 44.2344 52.593 44.0607 52.5892C43.7603 52.5892 43.2914 53.033 42.8841 54.2359C42.592 55.0925 42.337 55.927 42.1107 56.7392C38.9307 68.2086 42.2136 75.5455 45.1343 82.0703ZM109.511 65.9893C109.322 65.7052 109.133 65.4211 108.935 65.1371C108.656 64.7332 108.372 64.3292 108.072 63.9253C104.703 59.386 100.813 55.3276 96.4952 51.8479C96.1949 51.6038 95.9111 51.4041 95.6725 51.1821C95.4339 50.9602 95.076 50.7383 94.8497 50.5563C94.6234 50.3743 94.3849 50.2323 94.2121 50.1124C93.5841 49.7041 92.9601 49.3253 92.3403 48.9761C91.6006 50.426 90.6252 51.7205 89.4606 52.7978C89.6828 53.397 89.872 53.9607 90.0078 54.4978C90.1147 54.9017 90.2011 55.2834 90.2711 55.6518C90.3404 56.1351 90.3789 56.6231 90.3862 57.1121C90.5283 58.6241 90.173 60.1419 89.3825 61.3998C89.1443 61.7586 88.8681 62.0863 88.5597 62.3763C88.316 62.6136 88.0546 62.8289 87.7781 63.0199C87.6382 63.1131 87.5025 63.2018 87.3667 63.2817C86.5439 67.4052 82.3314 69.0874 80.04 70.0062C79.6739 70.1527 79.2419 70.3258 78.9992 70.4501C78.5343 74.0409 77.6622 75.6876 76.5803 76.6197C76.3197 76.451 76.0455 76.2912 75.7575 76.1403C75.4654 75.9761 75.161 75.8207 74.8525 75.6965H74.8114C72.8398 74.793 70.6785 74.481 68.5561 74.7935C66.4337 75.106 64.4289 76.0314 62.7538 77.4719L62.5276 77.6716L63.0212 78.1155L63.1775 78.2575C63.3997 78.4573 63.6259 78.6526 63.8522 78.8479C65.6228 77.3171 67.8281 76.4911 70.097 76.5087C71.0006 76.5108 71.9004 76.6361 72.775 76.8816C73.1119 76.9758 73.4442 77.0883 73.7706 77.2189C73.9146 77.2766 74.0627 77.3343 74.2067 77.4009C74.3506 77.4675 74.5933 77.5917 74.7867 77.6938C76.9854 78.8191 78.7464 80.7442 79.7603 83.1311C80.2902 84.3496 80.5795 85.6737 80.61 87.0192C80.6404 88.3648 80.4113 89.7025 79.9372 90.9475C79.4492 92.2103 78.7138 93.3444 77.7815 94.272C77.8679 94.6182 77.9379 94.9555 77.9955 95.2884C78.053 95.6213 78.1065 95.9808 78.1436 96.3137C78.1806 96.6466 78.1971 96.8863 78.2135 97.1659C85.0383 104.388 104.443 106.824 111.778 107.734C113.284 107.921 114.041 108.018 114.46 108.107L114.111 107.867C115.162 105.956 116.032 103.935 116.706 101.835C114.703 98.4354 113.67 94.9999 114.917 90.295C116.879 82.8959 115.234 75.0173 110.042 66.837C109.882 66.5618 109.696 66.2822 109.511 65.9893ZM350.288 118.493C348.947 119.159 345.64 125.493 342.513 131.809L360.437 134.747L362.272 135.045C357.409 128.755 353.201 122.959 350.288 118.493ZM348.618 117.659C348.565 116.736 349.663 115.382 353.209 111.338C354.818 109.501 357.253 106.718 357.455 106.07L359.1 106.376C358.948 107.339 357.627 108.928 354.419 112.59C353.296 113.868 351.765 115.613 350.914 116.745C351.185 116.864 351.417 117.068 351.58 117.33C354.912 122.457 359.602 128.844 364.769 135.471C375.054 137.158 385.396 138.849 395.651 140.491C393.689 138.272 388.119 130.589 370.265 104.095L368.776 101.875C367.649 100.22 366.62 98.573 365.629 96.9928C360.737 89.1543 356.875 82.9669 346.615 82.9669C339.152 82.9669 327.806 100.606 319.521 113.487C316.045 118.888 312.984 123.651 310.545 126.709C320.245 128.205 330.353 129.816 340.728 131.516C344.521 123.873 346.874 119.492 348.618 117.659ZM308.554 126.416C311.022 123.544 314.313 118.396 318.151 112.461C327.124 98.5153 338.309 81.1604 346.631 81.1604C357.788 81.1604 362.079 88.0313 367.044 95.9897C368.027 97.5654 369.047 99.1988 370.15 100.828C370.43 101.236 370.944 102 371.647 103.047C391.311 132.209 396.458 139.084 397.313 139.714C397.281 139.69 397.245 139.672 397.206 139.661L396.877 140.691L403.357 141.721C401.711 140.043 396.639 133.163 377.616 104.951C376.921 103.921 376.415 103.176 376.14 102.763L374.963 101.023C368.525 91.4623 358.837 77.0857 347.368 77.0857H346.866C334.504 77.5296 319.772 100.122 310.027 115.062C307.332 119.195 304.909 122.901 302.93 125.56C304.79 125.844 306.661 126.123 308.554 126.416ZM524.471 193.119C524.471 192.813 524.471 192.516 524.447 192.205C524.422 191.894 524.422 191.597 524.414 191.317C524.278 187.687 524.047 183.825 523.801 179.812C521.509 179.537 519.555 179.218 517.667 178.903C513.463 178.21 509.83 177.607 503.824 177.735H503.45C503.17 177.735 502.886 177.735 502.606 177.735H501.784C486.739 177.939 470.161 176.919 453.956 175.858L451.797 175.716L450.974 175.658C435.07 174.61 418.627 173.527 403.455 173.527C402.809 173.527 401.147 173.474 398.687 173.381L395.75 173.261C375.901 172.422 324.351 169.835 300.931 168.223C295.274 167.833 291.259 167.5 289.729 167.265C289.546 167.242 289.365 167.206 289.186 167.158C288.063 166.834 285.434 166.807 282.896 166.781C280.576 166.781 278.675 166.719 277.19 166.581L277.24 167.553L277.334 169.36L278.758 196.355H524.537C524.529 195.308 524.504 194.225 524.471 193.119ZM44.291 99.8557C43.7539 100.524 43.2799 101.248 42.8759 102.017C42.6126 102.461 42.3123 102.972 41.9626 103.549C41.8392 103.753 41.5101 104.214 40.8313 105.155C39.8276 106.545 37.639 109.594 36.9931 110.779L37.5115 111.272C37.6884 111.44 37.8652 111.609 38.0215 111.751C39.0527 110.248 40.0853 108.733 41.1193 107.206C41.5306 105.834 42.5385 104.654 43.4271 103.731C43.4554 103.702 43.4857 103.675 43.5176 103.651L43.6328 103.478C44.2532 102.559 44.8114 101.593 45.303 100.588C44.989 100.308 44.65 100.063 44.291 99.8557ZM53.5471 31.71C47.4463 33.3834 43.1885 37.5956 41.868 43.2504C41.2297 46.1161 41.3149 49.1141 42.1148 51.9323C42.3217 51.5992 42.5956 51.3208 42.9162 51.1179C43.2368 50.915 43.5956 50.7928 43.9661 50.7605C44.0851 50.7495 44.2048 50.7495 44.3239 50.7605C44.2335 49.3534 44.3898 48.0352 45.5128 46.8723C47.6396 44.653 48.6311 42.1718 49.5073 39.9614C50.9677 36.2818 52.3459 32.8064 58.3026 32.8064H58.64C59.4833 32.8064 60.7257 33.2502 61.931 33.6941C62.6049 33.9502 63.2916 34.1651 63.9879 34.3377C64.7238 33.2759 65.6569 32.3915 66.7277 31.7411C62.0503 30.6448 57.6033 30.596 53.5471 31.71ZM117.073 88.3642C116.941 89.186 116.768 89.9995 116.554 90.801C116.125 92.229 115.977 93.7377 116.119 95.231C116.26 96.7243 116.689 98.1693 117.377 99.474C118.212 96.0208 118.504 91.9861 117.073 88.3642ZM145.511 80.3215C150.621 85.2394 155.035 89.4827 156.894 93.3887L157.631 94.9377L180.112 82.9802C185.543 79.0964 197.559 70.0018 200.982 67.1389C197.247 65.9982 183.885 63.6368 171.325 61.9413C169.145 61.6483 160.354 59.864 152.065 57.8445C146.643 56.5129 143.014 55.4964 140.546 54.6753C140.311 54.6753 140.069 54.6753 139.818 54.6753C137.93 54.6753 135.605 54.2581 133.236 53.8275C131.277 53.4244 129.297 53.1531 127.308 53.0153C127.526 62.9977 137.074 72.2033 145.511 80.3215ZM136.588 24.6527L135.926 23.3877C135.572 22.7175 135.177 21.9718 134.733 21.1151C130.64 13.2366 128.192 12.2956 121.252 11.044L120.072 10.8353L119.561 10.7421L119.257 10.6933L118.891 10.6356C118.198 10.524 117.498 10.4662 116.797 10.4625C114.213 10.4625 112.815 11.3502 112.621 12.158C112.342 13.3387 114.193 15.4293 118.911 17.2269C119.098 17.2951 119.274 17.3923 119.434 17.5154C120.701 17.5909 122.141 17.7019 123.548 17.8439C123.914 17.8794 124.28 17.9193 124.638 17.9637C124.996 18.0081 125.37 18.0525 125.724 18.0969C126.778 18.2282 127.826 18.4178 128.863 18.665C128.995 18.6934 129.12 18.7511 129.231 18.8344C129.341 18.9176 129.434 19.0247 129.504 19.1488C129.404 18.9697 129.243 18.8393 129.056 18.7849L128.896 20.5958C128.694 20.5847 128.498 20.5174 128.328 20.4005C127.917 20.3028 127.464 20.2096 126.942 20.1209C126.596 20.0632 126.23 20.0055 125.843 19.9522C125.456 19.899 125.123 19.8546 124.745 19.8057C122.038 19.4685 119.316 19.2804 116.591 19.242C114.946 19.3264 114.534 19.606 114.46 19.7969C114.226 20.365 114.831 23.2767 117.34 24.4973C117.978 24.808 118.488 25.0477 118.903 25.243C119.512 25.3273 120.549 25.4427 121.618 25.5626L122.639 25.6735C125.012 25.9354 127.094 26.1707 128.628 26.3837L129.011 26.437L129.718 26.548C130.175 26.6234 130.541 26.6989 130.821 26.7699L131.018 26.8231C131.169 26.8655 131.321 26.8996 131.475 26.9252C132.513 27.1172 133.531 27.4236 134.511 27.8396L133.882 29.5262C133.281 29.2674 132.662 29.0611 132.03 28.9093C131.701 28.825 131.405 28.7673 131.162 28.7184L130.92 28.6651C130.793 28.6416 130.668 28.6105 130.545 28.572C130.292 28.5002 130.035 28.4439 129.776 28.4033C128.18 28.1148 124.946 27.7597 122.466 27.4845L121.779 27.409L120.931 27.3158C120.851 27.4782 120.735 27.617 120.594 27.7198L120.569 27.7419C120.574 28.1739 120.682 28.5972 120.882 28.9714C120.985 29.22 121.116 29.504 121.293 29.8591C121.652 30.4885 122.151 31.0106 122.745 31.3771C122.93 31.5045 123.121 31.6215 123.317 31.7278C123.767 31.9758 124.231 32.1908 124.708 32.3714C125.148 32.5445 125.584 32.6954 125.995 32.8152C128.167 32.762 131.088 34.027 133.511 35.11L133.783 35.2298L134.807 35.6737C135.272 35.8779 135.708 36.0554 136.041 36.1708C136.196 36.2303 136.356 36.2734 136.518 36.2995H136.712L137.016 36.4904L136.605 37.2405L136.416 37.6045L136.379 38.1016C136.288 38.1016 136.189 38.075 136.082 38.0528C135.674 37.9548 135.274 37.8212 134.885 37.6533C134.404 37.458 133.828 37.2094 133.125 36.8899C131.821 36.3084 130.245 35.5982 128.768 35.1144C128.65 35.3041 128.489 35.4571 128.299 35.5583C127.439 36.0421 127.476 36.4726 127.476 36.6546C127.723 39.1713 135.075 43.6942 136.621 44.1558C138.061 44.6026 139.38 45.4154 140.468 46.5261C141.199 47.2272 141.752 48.1178 142.076 49.1137C142.154 49.4017 142.185 49.7021 142.167 50.0015C142.161 50.1075 142.147 50.2129 142.126 50.3166C142.287 50.8121 142.359 51.3366 142.335 51.8612C142.508 51.7343 142.673 51.5949 142.829 51.444C143.053 51.2184 143.253 50.9668 143.426 50.6939C143.62 50.4016 143.781 50.0858 143.907 49.7529C145.26 46.0733 142.771 40.1167 141.282 36.557C140.822 35.4606 140.46 34.5951 140.266 33.9515C139.127 30.1876 138.473 28.4477 137.514 26.4681C137.259 25.9132 136.955 25.3185 136.605 24.6527H136.588ZM98.4616 19.0867C97.1781 21.8297 102.415 25.8866 106.442 28.6874C104.386 25.1365 102.213 21.5146 100.391 18.4431C99.4654 18.341 98.7538 18.4964 98.4781 19.0867H98.4616ZM224.542 95.6968C228.697 91.1738 231.975 87.6008 232.868 86.7086C237.294 82.27 243.621 71.3467 243.827 60.8627C243.938 55.0925 242.182 50.2101 238.631 46.3352C229.828 36.77 224.879 36.1264 215.018 34.8881C212.398 34.5552 209.423 34.1779 205.968 33.5565C195.593 31.7544 161.284 27.4445 139.464 26.5391C140.424 28.7567 141.237 31.0454 141.895 33.3878C142.06 33.9338 142.426 34.8037 142.846 35.8069C144.442 39.6329 147.116 46.0156 145.499 50.4276C145.157 51.3574 144.616 52.1865 143.919 52.8466C143.789 53.1466 143.606 53.4164 143.38 53.6411C152.217 56.2421 167.734 59.6021 171.556 60.117C178.274 61.0047 185.859 62.2165 191.849 63.3084C194.359 63.7522 196.296 64.1473 197.81 64.4757C199.772 64.711 207.375 66.0603 211.451 68.7323L210.575 70.2858C208.634 69.0164 205.799 68.0665 203.236 67.3963C203.129 67.596 202.681 68.284 190.784 77.2855C186.896 80.2327 184.202 82.239 182.305 83.606L204.174 116.953L204.001 117.344H204.458C210.46 111.041 219 101.733 224.542 95.6968ZM374.284 61.2755C362.683 48.4702 348.482 40.8269 336.277 40.8269H336.236C328.185 40.8269 321.237 44.0271 315.588 50.2989C300.24 67.343 292.876 80.4458 285.08 94.3164C281.789 100.202 278.404 106.194 274.331 112.737L274.8 121.64C283.028 122.67 291.77 123.9 300.968 125.271C303 122.661 305.649 118.613 308.64 114.019C319.176 97.8717 333.603 75.7586 346.804 75.2704C359.384 74.8265 369.582 89.9177 376.325 99.9489L377.497 101.684C377.773 102.088 378.283 102.843 378.974 103.873C398.65 133.056 403.801 139.932 404.657 140.562C404.622 140.541 404.587 140.523 404.55 140.509L404.138 141.84C414.201 143.425 424.156 144.947 433.889 146.368C417.977 120.233 395.577 84.7867 374.288 61.2755H374.284Z" fill="#F3DF24"/>
</svg>
