<svg xmlns="http://www.w3.org/2000/svg" width="247" height="580" fill="none" viewBox="0 0 247 580">
  <path fill="#F3DF24" d="M114.471 107.692c2.765.525 4.515 5.145 4.34 7.49 0 0 21 .245 28.245 4.41 0 0 9.94 9.45 22.295 39.165l-10.85-3.85h-39.655l-19.39 57.54h-.28c-5.46-4.48-14.805.56-15.68 5.775 0 .42-2.38 0-5.985-.805v.35c-11.13 7.455-5.635 21.665-5.635 21.665v.84a200.265 200.265 0 0 1-43.575-8.575c-14.385-5.075-21-11.62-24.255-19.6-4.935-11.48 15.295-82.495 34.265-92.33 7.21-3.745 31.5-5.11 34.685-5.25a10.992 10.992 0 0 1 4.235-6.405c.247-.096.506-.155.77-.175a124.793 124.793 0 0 1 36.47-.245Zm38.079 450.415c7.315.84 14.245 4.935 12.6 14.245h-56.56c1.68-9.345-5.25-13.44-12.6-14.28A69.74 69.74 0 0 1 85 555.937v-9.8h31.15c2.905.49 21.14 10.15 36.4 11.97Z"/>
  <path fill="#F3DF24" d="m161.125 300.437-137.76.315a556.234 556.234 0 0 1 4.935-69.055 200.173 200.173 0 0 0 43.365 8.505l4.025.42a98.583 98.583 0 0 0 9.31 3.815c1.295.28 2.555.49 3.745.63l-7.525 22.365 43.225-4.34 35 11.515c.98 14.7 1.47 22.68 1.68 25.83Zm-42.001-251.3a1.47 1.47 0 1 0 0-2.94 1.47 1.47 0 0 0 0 2.94Zm-23.238 508.97c7.35.84 14.28 4.935 12.6 14.28h-80.78c0-2.45 0-11.935-.21-26.25h32.095c2.135.49 13.405 6.3 25.41 9.765a69.592 69.592 0 0 0 10.885 2.205Zm5.074-508.97a1.47 1.47 0 1 0 0-2.94 1.47 1.47 0 0 0 0 2.94Z"/>
  <path stroke="#F3DF24" stroke-linejoin="round" stroke-width=".86" d="M72.996 114.517a10.994 10.994 0 0 1 4.235-6.405 2.75 2.75 0 0 1 .77-.175 124.781 124.781 0 0 1 36.54 0c2.765.525 4.515 5.145 4.34 7.49 0 0 21 .245 28.245 4.41 0 0 9.94 9.45 22.295 39.165l.21.455m-96.881-44.24c0-.245 0-.49.245-.7"/>
  <path stroke="#F3DF24" stroke-miterlimit="10" stroke-width=".86" d="M84.125 461.157c.35 37.345.805 69.545.945 84.805v9.345"/>
  <path stroke="#F3DF24" stroke-linejoin="round" stroke-width=".86" d="M159.305 274.502c1.12 14.805 1.61 22.785 1.82 26.005l-137.76.315a556.225 556.225 0 0 1 4.935-69.125v-1.19"/>
  <path stroke="#F3DF24" stroke-linecap="round" stroke-miterlimit="10" stroke-width=".86" d="M49.335 312.897c.42 15.12-10.045 24.185-23.03 27.79a48.973 48.973 0 0 1-10.885 1.715"/>
  <path stroke="#F3DF24" stroke-linecap="round" stroke-linejoin="round" stroke-width=".86" d="M27.704 572.212c0-2.45 0-11.935-.21-26.25-.455-43.54-1.505-132.09-1.19-205.275 0-13.72 0-26.915.315-39.13m81.831 270.83-80.745.385a3.083 3.083 0 0 1 0-.49m75.95-241.71a623.9 623.9 0 0 1-19.67 130.55c-7.385 29.785-15.96 58.205-24.22 84.49l-.175.35c2.135.49 13.405 6.3 25.41 9.765a69.647 69.647 0 0 0 10.885 2.345c7.35.84 14.28 4.935 12.6 14.28"/>
  <path stroke="#F3DF24" stroke-linecap="round" stroke-linejoin="round" stroke-width=".86" d="M159.83 302.152c-2.205 96.565-23.31 179.55-43.54 243.81 2.835.63 21 10.29 36.33 12.11 7.315.84 14.245 4.935 12.6 14.245h-57.435"/>
  <path stroke="#F3DF24" stroke-linecap="round" stroke-miterlimit="10" stroke-width=".86" d="M80.414 32.862c.42-2.94.875-6.405 1.575-9.905a34.229 34.229 0 0 1 6.51-15.96c8.05-8.96 16.625-5.6 23.94 1.96a53.152 53.152 0 0 1 5.74 7 87.477 87.477 0 0 1 11.935 24.5c3.08 12.11-14 39.375-18.935 41.335a9.592 9.592 0 0 1-1.785.525c-7.21 1.33-16.38-5.075-19.46-11.445"/>
  <path stroke="#F3DF24" stroke-miterlimit="10" stroke-width=".86" d="M78 108.427v-.49c0-20.475-1.084-39.13.63-59.5m30.52 33.145.21.84c1.855 7.7 2.94 15.19 5.11 25.27"/>
  <path stroke="#F3DF24" stroke-linecap="round" stroke-miterlimit="10" stroke-width=".86" d="M83.286 36.537a16.764 16.764 0 0 0-3.01-3.5c-8.155-7-13.615 8.575-10.22 13.02a7.7 7.7 0 0 0 8.4 1.855 7.91 7.91 0 0 0 1.925-.77"/>
  <path stroke="#F3DF24" stroke-miterlimit="10" stroke-width=".86" d="M118.11 16.027c1.96-.21 29.155-5.705 25.27-13.3-2.205-4.375-16.625.245-31.01 6.23-13.65 5.635-27.3 12.495-30.415 14l-.525.245"/>
  <path stroke="#F3DF24" stroke-linecap="round" stroke-miterlimit="10" stroke-width=".86" d="M114.68 37.622c1.19-2.52 5.81-4.13 7.665-1.12m-19.18 4.375a9.449 9.449 0 0 0-8.575.91"/>
  <path stroke="#F3DF24" stroke-linecap="round" stroke-linejoin="round" stroke-width=".86" d="M112.58 72.587c-2.24 2.66-7 .49-9.24-.91"/>
  <path stroke="#F3DF24" stroke-linecap="round" stroke-miterlimit="10" stroke-width=".86" d="M78.735 39.337a8.505 8.505 0 0 1-5.46 2.205m39.445.7a45.175 45.175 0 0 0 1.365 14c.455 3.045 1.085 8.89-4.095 7"/>
  <path stroke="#F3DF24" stroke-miterlimit="10" stroke-width=".86" d="M117.586 545.962h-31.99m-25.971 0h-31.99"/>
  <path stroke="#F3DF24" stroke-linecap="round" stroke-linejoin="round" stroke-width=".86" d="M27.705 572.772v6.09h80.745v-6.65H27.705v.56Zm80.885-.385v6.475h56.56v-6.65h-56.56v.175Z"/>
  <path stroke="#F3DF24" stroke-linejoin="round" stroke-width=".86" d="m204.63 227.007 4.55-11.935 20.825-54.705-35.7 7.28-24.815-8.855-10.92-3.885h-39.725l-19.39 57.54-3.5 10.36-.07.21m-7 21.035-.28.84-7.525 22.4 43.225-4.375 35 11.515 29.89-6.93 8.33-21.805"/>
  <path stroke="#F3DF24" stroke-linecap="round" stroke-linejoin="round" stroke-width=".86" d="M90.04 221.337a7.318 7.318 0 0 0 5.914 1.47c5.95-.84 12.355-6.37 14.56-2.87.735 1.19 0 2.8-1.225 4.445-3.815 4.41-13.685 8.82-21 4.795"/>
  <path stroke="#F3DF24" stroke-linecap="round" stroke-linejoin="round" stroke-width=".86" d="M109.745 224.522c3.815 2.59 1.68 5.985-.77 8.26a25.478 25.478 0 0 1-1.75 1.4 20.326 20.326 0 0 1-19.985 2.94"/>
  <path stroke="#F3DF24" stroke-linejoin="round" stroke-width=".86" d="M109.046 232.852c1.925-.385 3.185 1.505 2.205 3.71s-7 10.5-22.645 8.33c-1.19 0-2.45-.35-3.745-.63a98.462 98.462 0 0 1-9.17-3.5l-4.025-.42a200.229 200.229 0 0 1-43.365-8.645c-14.385-5.075-21-11.62-24.255-19.6-4.935-11.48 15.295-82.495 34.265-92.33 7.21-3.745 31.5-5.11 34.685-5.25h.315"/>
  <path stroke="#F3DF24" stroke-linecap="round" stroke-linejoin="round" stroke-width=".86" d="M205.889 226.272c-.35.35-.784.603-1.26.735-4.865 1.365-15.68-7.56-17.5-2.03-.35 1.12.63 2.415 2.345 3.5a26.877 26.877 0 0 0 17.5 4.375m-17.498-4.165c-4.445 1.47-2.87 4.445-.56 6.475a12.38 12.38 0 0 0 2.275 1.54 37.444 37.444 0 0 0 14.245 3.15"/>
  <path stroke="#F3DF24" stroke-linecap="round" stroke-linejoin="round" stroke-width=".86" d="M188.636 235.162c-1.61-.385-2.66 1.75-1.82 3.955a20.999 20.999 0 0 0 10.815 6.195c2.264.698 4.639.959 7 .77a15.634 15.634 0 0 0 7.825-3.044 15.632 15.632 0 0 0 5.125-6.651 14.665 14.665 0 0 0 0-11.025 20.385 20.385 0 0 0-2.87-5.46 25.256 25.256 0 0 0-4.935-4.515m-110.601-3.01c-5.46-4.48-14.805.56-15.68 5.775 0 .42-2.38 0-5.985-.805-11.13-2.695-34.3-10.5-39.83-18.025-7.35-9.8 13.65-46.375 13.65-46.375m106.995 4.13-34.02 105.84m70-95.27-35 106.785"/>
  <path fill="#F3DF24" d="M224.614 82.282a18.01 18.01 0 0 1-1.47 7c-1.61 3.5-7.77 13.545-7.77 13.545l-6.3 11.025a1.64 1.64 0 0 1-1.435.841 1.648 1.648 0 0 1-1.435-.841l-6.335-11.025s-6.125-9.975-7.735-13.545a18.163 18.163 0 0 1-1.47-7 16.973 16.973 0 0 1 16.975-16.975 16.974 16.974 0 0 1 16.975 16.975Zm-10.5-1.505a6.443 6.443 0 0 0-3.912-5.956 6.442 6.442 0 0 0-8.53 8.259 6.44 6.44 0 0 0 5.827 4.102 6.404 6.404 0 0 0 6.545-6.405h.07Z"/>
  <path stroke="#F3DF24" stroke-linecap="round" stroke-linejoin="round" stroke-width=".86" d="M220.065 123.862h-42.49a7.806 7.806 0 0 1-8.225-7.315V62.892a7.786 7.786 0 0 1 2.556-5.445 7.806 7.806 0 0 1 5.669-2.01h60.13A7.806 7.806 0 0 1 246 62.892v53.655a7.77 7.77 0 0 1-8.19 7.315h-8.26"/>
  <path stroke="#F3DF24" stroke-linecap="round" stroke-linejoin="round" stroke-width=".86" d="M229.794 119.557s-.245 1.75-.7 4.235c-.945 5.005-2.835 12.95-5.495 15.015-2.66 2.065-3.115-7.7-3.185-14.945v-7.42M71.77 239.362s-5.495-14.21 5.636-21.665"/>
  <path stroke="#7C7C7C" stroke-linecap="round" stroke-linejoin="round" stroke-width=".86" d="M78 220.147c-7.315-2.485-33.6-11.935-40.425-21-7.315-9.45 13.65-46.375 13.65-46.375"/>
  <path stroke="#7C7C7C" stroke-linejoin="round" stroke-width=".86" d="M73.73 237.822C19.515 237.437 3.17 225.817 1 212.587m59.746 333.795c4.935 1.82 21.42 10.08 35.385 11.69 7.385.84 13.825 4.9 12.425 15.26"/>
</svg>
