<svg width="113" height="266" viewBox="0 0 113 266" fill="none" xmlns="http://www.w3.org/2000/svg">
<path d="M102.358 38.1344C102.35 39.2346 102.122 40.322 101.686 41.3324C100.951 42.9314 98.1366 47.5205 98.1366 47.5205L95.2584 52.5574C95.1931 52.6739 95.0979 52.7709 94.9827 52.8384C94.8675 52.9059 94.7363 52.9415 94.6028 52.9415C94.4692 52.9415 94.3381 52.9059 94.2229 52.8384C94.1076 52.7709 94.0125 52.6739 93.9472 52.5574L91.053 47.5205C91.053 47.5205 88.2548 42.9634 87.5192 41.3324C87.0856 40.3214 86.8574 39.2344 86.8477 38.1344C86.8477 36.0776 87.6647 34.1051 89.1191 32.6507C90.5735 31.1963 92.546 30.3793 94.6028 30.3793C96.6596 30.3793 98.6321 31.1963 100.086 32.6507C101.541 34.1051 102.358 36.0776 102.358 38.1344ZM97.5609 37.4468C97.5639 36.8677 97.3958 36.3006 97.0778 35.8166C96.7599 35.3325 96.3061 34.9531 95.7735 34.7258C95.2408 34.4985 94.6529 34.4335 94.0834 34.5389C93.514 34.6443 92.9883 34.9154 92.5722 35.3182C92.1562 35.7211 91.8682 36.2378 91.7445 36.8035C91.6209 37.3693 91.6669 37.959 91.8769 38.4987C92.0869 39.0384 92.4515 39.5042 92.925 39.8376C93.3985 40.171 93.9599 40.3573 94.5388 40.373C94.9284 40.3815 95.3158 40.3121 95.6783 40.1689C96.0407 40.0257 96.3709 39.8115 96.6494 39.5389C96.9279 39.2663 97.1492 38.9409 97.3003 38.5816C97.4513 38.2224 97.529 37.8366 97.529 37.4468H97.5609Z" fill="#090F43"/>
<path d="M52.0384 49.7429C53.3016 49.9828 54.1011 52.0934 54.0212 53.1648C54.0212 53.1648 63.6152 53.2767 66.9251 55.1795C66.9251 55.1795 71.4662 59.4968 77.1107 73.0723L72.1538 71.3134H54.0372L45.1787 97.6009H45.0508C42.5564 95.5542 38.287 97.8567 37.8873 100.239C37.8873 100.431 36.8 100.239 35.153 99.8715V100.031C30.0682 103.437 32.5786 109.929 32.5786 109.929V110.313C25.818 109.749 19.1412 108.435 12.6711 106.395C6.09923 104.077 3.07713 101.087 1.59006 97.441C-0.664527 92.1963 8.57768 59.7526 17.2442 55.2595C20.5382 53.5485 31.6352 52.9249 33.0903 52.861C33.3624 51.6847 34.0493 50.6458 35.0251 49.9348C35.1378 49.891 35.2563 49.8641 35.3769 49.8548C40.8953 49.0017 46.5091 48.964 52.0384 49.7429Z" fill="#090F43"/>
<path d="M69.4349 255.518C72.7768 255.902 75.9428 257.772 75.1913 262.026H49.3515C50.119 257.756 46.953 255.886 43.5951 255.502C41.898 255.312 40.219 254.986 38.5742 254.527V254.319C38.5742 254.031 38.5742 252.528 38.5742 250.049H52.8053C54.1325 250.273 62.4632 254.686 69.4349 255.518Z" fill="#090F43"/>
<path d="M73.3545 137.8L10.418 137.944C10.5137 127.391 11.2667 116.855 12.6726 106.396C19.1128 108.418 25.7571 109.721 32.4841 110.281L34.323 110.473C35.7102 111.126 37.1298 111.708 38.5763 112.216C39.1679 112.344 39.7436 112.44 40.2872 112.504L36.8494 122.721L56.597 120.739L72.587 125.999C73.0347 132.715 73.2586 136.361 73.3545 137.8Z" fill="#090F43"/>
<path d="M54.1657 22.9917C54.5366 22.9917 54.8373 22.691 54.8373 22.3201C54.8373 21.9492 54.5366 21.6486 54.1657 21.6486C53.7948 21.6486 53.4941 21.9492 53.4941 22.3201C53.4941 22.691 53.7948 22.9917 54.1657 22.9917Z" fill="#090F43"/>
<path d="M43.5491 255.518C46.907 255.902 50.073 257.772 49.3055 262.042H12.4006C12.4006 260.922 12.4006 256.589 12.3047 250.049H26.9675C27.9429 250.273 33.0917 252.928 38.5762 254.511C40.2044 254.978 41.8673 255.315 43.5491 255.518Z" fill="#090F43"/>
<path d="M45.8649 22.9917C46.2358 22.9917 46.5365 22.691 46.5365 22.3201C46.5365 21.9492 46.2358 21.6486 45.8649 21.6486C45.494 21.6486 45.1934 21.9492 45.1934 22.3201C45.1934 22.691 45.494 22.9917 45.8649 22.9917Z" fill="#090F43"/>
<path d="M33.0918 52.8611C33.3639 51.6848 34.0508 50.646 35.0266 49.9349C35.1393 49.8912 35.2578 49.8642 35.3784 49.855C40.9127 49.0358 46.5375 49.0358 52.0719 49.855C53.3351 50.0948 54.1346 52.2055 54.0547 53.2768C54.0547 53.2768 63.6486 53.3888 66.9586 55.2916C66.9586 55.2916 71.4997 59.6089 77.1442 73.1844L77.2401 73.3922" stroke="#090F43" stroke-width="0.86" stroke-linejoin="round"/>
<path d="M32.9785 53.181C32.9785 53.0691 32.9785 52.9571 33.0904 52.8612" stroke="#090F43" stroke-width="0.86" stroke-linejoin="round"/>
<path d="M38.1758 211.226C38.3357 228.287 38.5435 242.998 38.6075 249.969C38.6075 252.448 38.6075 253.951 38.6075 254.239" stroke="#090F43" stroke-width="0.86" stroke-miterlimit="10"/>
<path d="M72.523 125.951C73.0347 132.715 73.2586 136.361 73.3545 137.832L10.418 137.976C10.5124 127.412 11.2653 116.865 12.6726 106.396C12.6726 106.22 12.6726 106.028 12.6726 105.852" stroke="#090F43" stroke-width="0.86" stroke-linejoin="round"/>
<path d="M22.2814 143.492C22.4733 150.4 17.6923 154.541 11.76 156.188C10.1371 156.636 8.46892 156.898 6.78711 156.972" stroke="#090F43" stroke-width="0.86" stroke-miterlimit="10" stroke-linecap="round"/>
<path d="M12.3985 261.962C12.3985 260.843 12.3985 256.51 12.3026 249.97C12.0947 230.078 11.615 189.623 11.7589 156.188C11.7589 149.92 11.7589 143.892 11.9028 138.312" stroke="#090F43" stroke-width="0.86" stroke-linecap="round" stroke-linejoin="round"/>
<path d="M49.2879 262.042L12.399 262.218C12.393 262.143 12.393 262.068 12.399 261.994" stroke="#090F43" stroke-width="0.86" stroke-linecap="round" stroke-linejoin="round"/>
<path d="M47.0982 151.567C46.2205 171.71 43.2082 191.703 38.1118 211.21C34.7379 224.817 30.8204 237.801 27.0468 249.81L26.9668 249.97C27.9422 250.193 33.091 252.848 38.5755 254.431C40.2019 254.92 41.8649 255.278 43.5484 255.502C46.9063 255.886 50.0723 257.757 49.3048 262.026" stroke="#090F43" stroke-width="0.86" stroke-linecap="round" stroke-linejoin="round"/>
<path d="M72.7615 138.583C71.7541 182.7 62.1121 220.612 52.8699 249.97C54.1651 250.257 62.4639 254.671 69.4675 255.502C72.8094 255.886 75.9754 257.757 75.2239 262.01H48.9844" stroke="#090F43" stroke-width="0.86" stroke-linecap="round" stroke-linejoin="round"/>
<path d="M36.4785 15.5565C36.6704 14.2134 36.8783 12.6304 37.1981 11.0314C37.5513 8.38699 38.5751 5.87694 40.1722 3.73994C43.8499 -0.353489 47.7674 1.18155 51.1093 4.63538C52.0728 5.62483 52.9502 6.69471 53.7317 7.83337C56.1227 11.2567 57.9625 15.0335 59.1843 19.0264C60.5914 24.5589 52.7883 37.0151 50.5337 37.9105C50.2703 38.0167 49.9972 38.097 49.7182 38.1504C46.4243 38.758 42.2349 35.8318 40.8278 32.9216" stroke="#090F43" stroke-width="0.86" stroke-miterlimit="10" stroke-linecap="round"/>
<path d="M35.3754 50.0788V49.8549C35.3754 40.5008 34.8797 31.9782 35.6632 22.672" stroke="#090F43" stroke-width="0.86" stroke-miterlimit="10"/>
<path d="M49.6074 37.8146L49.7034 38.1983C50.5508 41.7161 51.0465 45.138 52.0379 49.7431" stroke="#090F43" stroke-width="0.86" stroke-miterlimit="10"/>
<path d="M37.7916 17.2354C37.4092 16.6416 36.9464 16.1035 36.4165 15.6364C32.6908 12.4384 30.1964 19.554 31.7474 21.5847C32.2301 22.0918 32.8532 22.4433 33.5368 22.5943C34.2205 22.7453 34.9336 22.6888 35.585 22.4322C35.8923 22.354 36.188 22.2357 36.4645 22.0804" stroke="#090F43" stroke-width="0.86" stroke-miterlimit="10" stroke-linecap="round"/>
<path d="M53.7008 7.86532C54.5963 7.76938 67.0205 5.25896 65.2456 1.78914C64.2382 -0.20961 57.6504 1.90106 51.0785 4.63535C44.8424 7.20973 38.6063 10.3438 37.1832 11.0313L36.9434 11.1433" stroke="#090F43" stroke-width="0.86" stroke-miterlimit="10"/>
<path d="M52.1328 17.731C52.6765 16.5797 54.7871 15.8442 55.6346 17.2193" stroke="#090F43" stroke-width="0.86" stroke-miterlimit="10" stroke-linecap="round"/>
<path d="M46.8726 19.2182C46.2335 18.9717 45.5449 18.8809 44.8637 18.9532C44.1825 19.0255 43.5283 19.2588 42.9551 19.6339" stroke="#090F43" stroke-width="0.86" stroke-miterlimit="10" stroke-linecap="round"/>
<path d="M51.1745 33.7052C50.1511 34.9204 47.9765 33.929 46.9531 33.2894" stroke="#090F43" stroke-width="0.86" stroke-linecap="round" stroke-linejoin="round"/>
<path d="M35.7132 18.5146C35.0282 19.1367 34.1437 19.494 33.2188 19.522" stroke="#090F43" stroke-width="0.86" stroke-miterlimit="10" stroke-linecap="round"/>
<path d="M51.2375 19.8418C51.1099 21.9933 51.3203 24.1515 51.8611 26.2378C52.0689 27.6289 52.3568 30.2992 49.9902 29.4358" stroke="#090F43" stroke-width="0.86" stroke-miterlimit="10" stroke-linecap="round"/>
<path d="M53.4625 249.969H52.8709H38.8477" stroke="#090F43" stroke-width="0.86" stroke-miterlimit="10"/>
<path d="M26.982 249.969H26.966H12.3672" stroke="#090F43" stroke-width="0.86" stroke-miterlimit="10"/>
<path d="M12.3984 262.218V265H49.2873V262.042V261.962H12.3984V261.994V262.218Z" stroke="#090F43" stroke-width="0.86" stroke-linecap="round" stroke-linejoin="round"/>
<path d="M49.3516 262.042V265H75.1914V262.026V261.962H49.3516V262.042Z" stroke="#090F43" stroke-width="0.86" stroke-linecap="round" stroke-linejoin="round"/>
<path d="M93.2277 104.253L95.3064 98.8002L104.82 73.8079L88.5107 77.1338L77.1738 73.0884L72.1849 71.3135H54.0363L45.1778 97.601L43.5788 102.334L43.5469 102.43" stroke="#090F43" stroke-width="0.86" stroke-linejoin="round"/>
<path d="M40.349 112.04L40.221 112.424L36.7832 122.657L56.5308 120.659L72.5208 125.919L86.1762 122.753L89.9818 112.792" stroke="#090F43" stroke-width="0.86" stroke-linejoin="round"/>
<path d="M40.8776 101.663C41.2533 101.962 41.6892 102.177 42.1555 102.293C42.6218 102.409 43.1077 102.423 43.5799 102.334C46.2982 101.95 49.2244 99.424 50.2318 101.023C50.5675 101.567 50.2318 102.302 49.6721 103.054C47.9292 105.068 43.42 107.083 40.0781 105.244" stroke="#090F43" stroke-width="0.86" stroke-linecap="round" stroke-linejoin="round"/>
<path d="M49.8812 103.118C51.6241 104.301 50.6487 105.852 49.5294 106.891C49.2576 107.131 48.9697 107.355 48.7299 107.531C47.4569 108.531 45.9448 109.181 44.3433 109.416C42.7418 109.652 41.1066 109.465 39.5996 108.874" stroke="#090F43" stroke-width="0.86" stroke-linecap="round" stroke-linejoin="round"/>
<path d="M49.56 106.923C50.4394 106.747 51.0151 107.611 50.5673 108.618C50.1196 109.626 47.3693 113.415 40.2218 112.424C39.6782 112.424 39.1025 112.264 38.5109 112.136C37.0888 111.673 35.6906 111.139 34.3215 110.537L32.4827 110.345C25.7533 109.764 19.1089 108.44 12.6711 106.396C6.09923 104.077 3.07713 101.087 1.59006 97.4412C-0.664527 92.1965 8.57768 59.7529 17.2442 55.2597C20.5382 53.5488 31.6352 52.9252 33.0903 52.8612H33.2342" stroke="#090F43" stroke-width="0.86" stroke-linejoin="round"/>
<path d="M93.804 103.917C93.6442 104.077 93.446 104.192 93.2284 104.253C91.0058 104.876 86.0649 100.799 85.2334 103.325C85.0735 103.837 85.5212 104.429 86.3047 104.924C88.6599 106.492 91.484 107.198 94.2997 106.923" stroke="#090F43" stroke-width="0.86" stroke-linecap="round" stroke-linejoin="round"/>
<path d="M86.3053 105.02C84.2745 105.692 84.9941 107.051 86.0494 107.979C86.3688 108.251 86.7174 108.487 87.0888 108.682C89.1428 109.584 91.354 110.073 93.5967 110.121" stroke="#090F43" stroke-width="0.86" stroke-linecap="round" stroke-linejoin="round"/>
<path d="M85.9221 107.979C85.1865 107.803 84.7068 108.778 85.0906 109.785C86.4132 111.207 88.1361 112.194 90.0315 112.616C91.0656 112.934 92.1508 113.054 93.2295 112.967C94.5256 112.838 95.7618 112.357 96.8045 111.577C97.8473 110.796 98.6568 109.745 99.1458 108.538C99.8009 106.923 99.8009 105.116 99.1458 103.501C98.8379 102.608 98.3958 101.767 97.8346 101.007C97.1779 100.222 96.4198 99.5287 95.58 98.9442" stroke="#090F43" stroke-width="0.86" stroke-linecap="round" stroke-linejoin="round"/>
<path d="M45.0514 97.5691C42.557 95.5223 38.2877 97.8249 37.8879 100.207C37.8879 100.399 36.8006 100.207 35.1536 99.8396C30.0688 98.6084 19.4835 95.0426 16.9571 91.6048C13.5992 87.1276 23.1931 70.4181 23.1931 70.4181" stroke="#090F43" stroke-width="0.86" stroke-linecap="round" stroke-linejoin="round"/>
<path d="M72.0735 72.3048L56.5312 120.658" stroke="#090F43" stroke-width="0.86" stroke-linecap="round" stroke-linejoin="round"/>
<path d="M88.5115 77.1338L72.5215 125.919" stroke="#090F43" stroke-width="0.86" stroke-linecap="round" stroke-linejoin="round"/>
<path d="M100.279 57.1303H80.867C79.9262 57.1828 79.0029 56.8607 78.2988 56.2345C77.5947 55.6083 77.1671 54.7289 77.1094 53.7884V29.2758C77.1298 28.8045 77.2436 28.342 77.444 27.915C77.6445 27.4881 77.9276 27.1051 78.2771 26.7883C78.6266 26.4715 79.0355 26.2273 79.48 26.0696C79.9246 25.912 80.396 25.8441 80.867 25.8699H108.338C108.811 25.8397 109.286 25.9043 109.735 26.0599C110.183 26.2156 110.595 26.4592 110.948 26.7764C111.301 27.0936 111.587 27.478 111.79 27.9072C111.992 28.3364 112.107 28.8017 112.127 29.2758V53.7884C112.074 54.7275 111.65 55.6069 110.948 56.2335C110.247 56.8601 109.325 57.1827 108.386 57.1303H104.612" stroke="#090F43" stroke-width="0.86" stroke-linecap="round" stroke-linejoin="round"/>
<path d="M104.725 55.1636C104.725 55.1636 104.613 55.9631 104.405 57.0984C103.973 59.3849 103.11 63.0147 101.895 63.9581C100.679 64.9015 100.471 60.4403 100.439 57.1304C100.439 55.2595 100.439 53.7405 100.439 53.7405" stroke="#090F43" stroke-width="0.86" stroke-linecap="round" stroke-linejoin="round"/>
<path d="M32.5298 109.897C32.5298 109.897 30.0194 103.405 35.1042 99.9995" stroke="#090F43" stroke-width="0.86" stroke-linecap="round" stroke-linejoin="round"/>
</svg>
