<svg width="390" height="324" viewBox="0 0 390 324" fill="none" xmlns="http://www.w3.org/2000/svg">
<path d="M-263 160.489C-242.151 217.549 -168.52 327.78 -55.082 314.974C80.9159 299.622 50.3116 142.641 176.554 107.715C302.797 72.7882 395.758 206.547 465 276.017" stroke="#F3DF24" stroke-width="15"/>
<path opacity="0.4" d="M302.567 183.197L254.358 213.599C251.892 215.154 249.115 216.15 246.223 216.516C243.331 216.882 240.394 216.609 237.618 215.717L184.773 198.73C181.98 197.833 179.024 197.562 176.115 197.938C173.205 198.314 170.415 199.328 167.942 200.906L129.253 225.603C128.066 226.353 126.721 226.816 125.323 226.955C123.926 227.095 122.516 226.907 121.204 226.406C119.892 225.905 118.716 225.106 117.767 224.071C116.818 223.036 116.123 221.794 115.738 220.444L82.3465 103.382C81.8111 101.505 81.898 99.5051 82.5942 97.6815C83.2904 95.8579 84.5583 94.3088 86.2084 93.266L134.932 62.4726C137.633 60.7654 140.676 59.6719 143.846 59.2693C147.017 58.8667 150.236 59.1648 153.279 60.1426L204.438 76.5873C207.491 77.5687 210.723 77.8655 213.904 77.4566C217.085 77.0476 220.137 75.943 222.842 74.2212L259.479 50.9066C260.666 50.1515 262.012 49.6838 263.411 49.5409C264.811 49.398 266.224 49.5837 267.539 50.0833C268.854 50.5828 270.034 51.3825 270.985 52.4185C271.936 53.4546 272.633 54.6984 273.019 56.051L306.405 173.096C306.939 174.969 306.854 176.964 306.163 178.784C305.471 180.604 304.21 182.152 302.567 183.197Z" fill="#CCCDCF"/>
<path d="M304.447 170.774L263.28 196.971C260.574 198.693 257.522 199.797 254.342 200.206C251.161 200.615 247.929 200.319 244.875 199.337L193.713 182.892C190.671 181.915 187.451 181.616 184.281 182.019C181.111 182.422 178.068 183.515 175.366 185.222L131.132 213.179C129.945 213.929 128.599 214.392 127.202 214.532C125.805 214.671 124.395 214.483 123.083 213.982C121.771 213.481 120.594 212.682 119.645 211.647C118.697 210.612 118.002 209.37 117.617 208.02L84.2255 90.9585C83.6901 89.0814 83.7769 87.0814 84.473 85.2578C85.1691 83.4342 86.437 81.8851 88.087 80.8422L136.808 50.0475C139.51 48.3404 142.553 47.2469 145.723 46.8444C148.893 46.4418 152.113 46.74 155.155 47.7178L206.317 64.1629C209.37 65.1443 212.602 65.4411 215.783 65.0321C218.964 64.6231 222.016 63.5183 224.722 61.7964L261.358 38.4821C262.545 37.727 263.892 37.2594 265.291 37.1165C266.69 36.9735 268.103 37.1593 269.418 37.6588C270.733 38.1584 271.913 38.958 272.864 39.9941C273.816 41.0301 274.512 42.2739 274.898 43.6265L308.284 160.671C308.819 162.544 308.734 164.539 308.043 166.359C307.351 168.18 306.09 169.728 304.447 170.774Z" fill="#090F43"/>
<path d="M188.804 169.66L181.149 148.062L144.974 160.446L133.663 127.672L104.199 133.536L124.857 205.955C124.948 206.272 125.141 206.551 125.405 206.75C125.669 206.948 125.991 207.054 126.322 207.053C126.602 207.052 126.876 206.969 127.11 206.814L169.165 180.235C168.982 180.021 188.804 169.66 188.804 169.66Z" fill="#EAF4F7"/>
<path d="M304.447 170.774L263.28 196.971C260.574 198.693 257.522 199.797 254.342 200.206C251.161 200.615 247.929 200.319 244.875 199.337L193.713 182.892C190.671 181.915 187.451 181.616 184.281 182.019C181.111 182.422 178.068 183.515 175.366 185.222L131.132 213.179C129.945 213.929 128.599 214.392 127.202 214.532C125.805 214.671 124.395 214.483 123.083 213.982C121.771 213.481 120.594 212.682 119.645 211.647C118.697 210.612 118.002 209.37 117.617 208.02L84.2255 90.9585C83.6901 89.0814 83.7769 87.0814 84.473 85.2578C85.1691 83.4342 86.437 81.8851 88.087 80.8422L136.808 50.0475C139.51 48.3404 142.553 47.2469 145.723 46.8444C148.893 46.4418 152.113 46.74 155.155 47.7178L206.317 64.1629C209.37 65.1443 212.602 65.4411 215.783 65.0321C218.964 64.6231 222.016 63.5183 224.722 61.7964L261.358 38.4821C262.545 37.727 263.892 37.2594 265.291 37.1165C266.69 36.9735 268.103 37.1593 269.418 37.6588C270.733 38.1584 271.913 38.958 272.864 39.9941C273.816 41.0301 274.512 42.2739 274.898 43.6265L308.284 160.671C308.819 162.544 308.734 164.539 308.043 166.359C307.351 168.18 306.09 169.728 304.447 170.774Z" stroke="#363A5A" stroke-width="6" stroke-miterlimit="10"/>
<path d="M150.834 156.232C150.834 156.232 151.461 156.069 152.519 155.76" stroke="#363A5A" stroke-width="4" stroke-linecap="round" stroke-linejoin="round"/>
<path d="M157.609 154.131C165.044 151.544 175.954 146.798 176.085 141.185C176.26 133.727 140.116 96.4154 159.547 94.1599C224.422 86.63 195.354 140.587 224.941 139.381C237.441 138.871 214.325 121.686 250.039 109.264C255.333 107.422 252.703 93.9575 250.927 86.9178" stroke="#363A5A" stroke-width="4" stroke-linecap="round" stroke-linejoin="round" stroke-dasharray="10.18 15.26"/>
<path d="M250.242 84.3342C249.947 83.2778 249.752 82.6536 249.752 82.6536" stroke="#363A5A" stroke-width="4" stroke-linecap="round" stroke-linejoin="round"/>
<path opacity="0.22" d="M148.574 174.017C157.893 174.017 165.448 166.463 165.448 157.144C165.448 147.825 157.893 140.271 148.574 140.271C139.256 140.271 131.701 147.825 131.701 157.144C131.701 166.463 139.256 174.017 148.574 174.017Z" fill="#3DC0CB"/>
<path d="M148.578 166.928C153.982 166.928 158.362 162.548 158.362 157.144C158.362 151.74 153.982 147.359 148.578 147.359C143.174 147.359 138.793 151.74 138.793 157.144C138.793 162.548 143.174 166.928 148.578 166.928Z" fill="#F3DF24"/>
<path d="M148.575 147.359C147.075 147.358 145.594 147.703 144.249 148.366C142.904 149.029 141.729 149.994 140.816 151.184C142.74 149.876 145.066 149.297 147.378 149.55C149.691 149.802 151.837 150.87 153.433 152.562C155.029 154.254 155.97 156.459 156.087 158.782C156.204 161.105 155.49 163.394 154.072 165.238C155.803 164.062 157.112 162.362 157.806 160.388C158.499 158.413 158.542 156.268 157.927 154.268C157.312 152.268 156.072 150.518 154.388 149.274C152.705 148.031 150.668 147.359 148.575 147.359H148.575Z" fill="#F3DF24"/>
<path d="M148.578 166.928C153.982 166.928 158.362 162.548 158.362 157.144C158.362 151.74 153.982 147.359 148.578 147.359C143.174 147.359 138.793 151.74 138.793 157.144C138.793 162.548 143.174 166.928 148.578 166.928Z" stroke="#090F43" stroke-width="6" stroke-miterlimit="10"/>
<path d="M153.034 69.8439L181.098 75.1634L174.653 63.8361L151.426 55.7324C150.083 55.2638 148.66 55.0644 147.24 55.1456C145.819 55.2268 144.429 55.5871 143.147 56.2058L92.1104 87.2071C91.8363 87.3818 91.6257 87.6401 91.5098 87.9438C91.3938 88.2474 91.3787 88.5803 91.4665 88.8933L99.6973 117.748L122.137 112.199L118.016 95.6693L153.034 69.8439Z" fill="#F5F6E2" stroke="#090F43" stroke-width="4" stroke-linecap="round" stroke-linejoin="round"/>
<path d="M197.506 141.301L213.52 145.333L221.263 163.078L204.011 160.25L197.506 141.301Z" fill="#F5F6E2" stroke="#090F43" stroke-width="4" stroke-linecap="round" stroke-linejoin="round"/>
<path d="M250.044 88.1448C237.034 88.1448 226.488 84.3718 226.488 79.7176C226.488 75.0633 237.034 71.29 250.044 71.29C263.054 71.29 273.6 75.0633 273.6 79.7176C273.6 84.3718 263.053 88.1448 250.044 88.1448Z" fill="#EAF4F7"/>
<path d="M257.44 135.894L286.825 123.102L298.434 158.468L250.851 185.509L242.129 160.895L260.735 150.43L257.44 135.894Z" fill="white" stroke="#090F43" stroke-width="4" stroke-linecap="round" stroke-linejoin="round"/>
<path d="M284.728 38.6268C284.728 18.3895 268.303 2.09317 248.399 3.03921C230.577 3.88652 215.385 19.0687 215.385 37.3951C215.385 63.9056 250.047 84.3471 250.047 84.3471C250.047 84.3471 284.728 63.9056 284.728 38.6268Z" fill="#F3DF24"/>
<path d="M262.707 74.0887C259.974 76.221 256.604 77.3736 253.137 77.3616C249.671 77.3497 246.309 76.1739 243.59 74.0229C233.332 65.9 218.494 51.1516 218.494 33.8073C218.52 26.4431 220.956 19.2898 225.43 13.4404C219.277 19.6538 215.385 28.1213 215.385 37.3951C215.385 63.9056 250.047 84.3471 250.047 84.3471C250.047 84.3471 264.183 76.0141 274.406 63.4095C270.798 67.2758 266.886 70.8469 262.707 74.0887Z" fill="#F3DF24"/>
<path d="M248.399 3.03921C242.15 3.36116 236.109 5.38592 230.928 8.89438C235.008 6.92696 239.441 5.79771 243.964 5.57343C263.868 4.62808 280.294 20.9233 280.294 41.161C280.294 60.9817 258.974 77.8277 249.766 84.1787C249.946 84.2886 250.046 84.3482 250.046 84.3482C250.046 84.3482 284.728 63.9056 284.728 38.6268C284.729 18.3895 268.303 2.09317 248.399 3.03921Z" fill="#F3DF24"/>
<path d="M250.046 52.2553C247.223 52.2553 244.464 51.4185 242.118 49.8505C239.771 48.2826 237.942 46.054 236.862 43.4465C235.782 40.8391 235.499 37.9699 236.05 35.2018C236.6 32.4337 237.959 29.891 239.955 27.8953C241.95 25.8996 244.493 24.5406 247.261 23.9899C250.029 23.4393 252.898 23.7219 255.506 24.8019C258.113 25.8819 260.342 27.7109 261.91 30.0576C263.478 32.4042 264.315 35.1632 264.315 37.9855C264.315 41.77 262.812 45.3995 260.136 48.0756C257.46 50.7517 253.83 52.2552 250.046 52.2553Z" fill="white"/>
<path d="M250.046 52.2553C247.223 52.2553 244.464 51.4185 242.118 49.8505C239.771 48.2826 237.942 46.054 236.862 43.4465C235.782 40.8391 235.499 37.9699 236.05 35.2018C236.6 32.4337 237.959 29.891 239.955 27.8953C241.95 25.8996 244.493 24.5406 247.261 23.9899C250.029 23.4393 252.898 23.7219 255.506 24.8019C258.113 25.8819 260.342 27.7109 261.91 30.0576C263.478 32.4042 264.315 35.1632 264.315 37.9855C264.315 41.77 262.812 45.3995 260.136 48.0756C257.46 50.7517 253.83 52.2552 250.046 52.2553Z" stroke="#363A5A" stroke-width="6" stroke-miterlimit="10"/>
<path d="M284.728 38.6268C284.728 18.3895 268.303 2.09317 248.399 3.03921C230.577 3.88652 215.385 19.0687 215.385 37.3951C215.385 63.9056 250.047 84.3471 250.047 84.3471C250.047 84.3471 284.728 63.9056 284.728 38.6268Z" stroke="#363A5A" stroke-width="6" stroke-linecap="round" stroke-linejoin="round"/>
</svg>
