<svg width="1728" height="830" viewBox="0 0 1728 830" fill="none" xmlns="http://www.w3.org/2000/svg">
<path d="M-111 389.389C-56.5 538.056 135.971 825.255 432.5 791.89C788 751.89 708 342.888 1038 251.889C1368 160.891 1611 509.39 1792 690.39" stroke="#F3DF24" stroke-width="70"/>
<path opacity="0.4" d="M1665.1 391.964L1561.04 457.588C1555.72 460.945 1549.73 463.093 1543.48 463.883C1537.24 464.673 1530.9 464.084 1524.91 462.159L1410.84 425.492C1404.81 423.555 1398.43 422.971 1392.15 423.783C1385.87 424.595 1379.85 426.782 1374.51 430.189L1291 483.499C1288.44 485.117 1285.53 486.117 1282.52 486.418C1279.5 486.718 1276.46 486.312 1273.62 485.231C1270.79 484.15 1268.25 482.425 1266.2 480.191C1264.16 477.957 1262.66 475.276 1261.83 472.362L1189.75 219.679C1188.59 215.628 1188.78 211.311 1190.28 207.374C1191.79 203.438 1194.52 200.094 1198.08 197.843L1303.26 131.374C1309.09 127.689 1315.66 125.329 1322.5 124.46C1329.34 123.591 1336.29 124.234 1342.86 126.345L1453.29 161.842C1459.88 163.96 1466.85 164.601 1473.72 163.718C1480.59 162.835 1487.17 160.451 1493.01 156.734L1572.1 106.409C1574.66 104.779 1577.56 103.769 1580.58 103.461C1583.6 103.152 1586.66 103.553 1589.49 104.631C1592.33 105.71 1594.88 107.436 1596.93 109.672C1598.99 111.908 1600.49 114.593 1601.32 117.513L1673.39 370.16C1674.54 374.202 1674.36 378.508 1672.86 382.437C1671.37 386.366 1668.65 389.708 1665.1 391.964Z" fill="#CCCDCF"/>
<path d="M1669.17 365.147L1580.31 421.695C1574.47 425.411 1567.88 427.796 1561.01 428.679C1554.15 429.561 1547.17 428.921 1540.58 426.802L1430.14 391.306C1423.58 389.195 1416.63 388.551 1409.78 389.42C1402.94 390.289 1396.37 392.65 1390.54 396.334L1295.06 456.681C1292.5 458.3 1289.59 459.3 1286.58 459.601C1283.56 459.901 1280.52 459.495 1277.68 458.414C1274.85 457.333 1272.31 455.607 1270.26 453.373C1268.22 451.139 1266.72 448.459 1265.89 445.545L1193.81 192.862C1192.65 188.811 1192.84 184.493 1194.34 180.557C1195.85 176.621 1198.58 173.277 1202.14 171.026L1307.31 104.554C1313.14 100.869 1319.71 98.509 1326.55 97.6401C1333.4 96.7712 1340.35 97.4147 1346.91 99.5253L1457.35 135.023C1463.94 137.141 1470.92 137.782 1477.78 136.899C1484.65 136.016 1491.24 133.631 1497.08 129.915L1576.16 79.5898C1578.72 77.9599 1581.63 76.9505 1584.65 76.642C1587.67 76.3335 1590.72 76.7343 1593.56 77.8127C1596.39 78.8911 1598.94 80.6171 1600.99 82.8534C1603.05 85.0898 1604.55 87.7746 1605.38 90.6942L1677.45 343.34C1678.6 347.382 1678.42 351.689 1676.93 355.618C1675.44 359.548 1672.71 362.89 1669.17 365.147Z" fill="#090F43"/>
<path d="M1419.54 362.743L1403.02 316.123L1324.93 342.855L1300.52 272.111L1236.92 284.768L1281.51 441.086C1281.71 441.772 1282.12 442.374 1282.69 442.802C1283.26 443.23 1283.96 443.46 1284.67 443.457C1285.28 443.455 1285.87 443.276 1286.37 442.942L1377.15 385.57C1376.75 385.108 1419.54 362.743 1419.54 362.743Z" fill="#EAF4F7"/>
<path d="M1669.17 365.147L1580.31 421.695C1574.47 425.411 1567.88 427.796 1561.01 428.679C1554.15 429.561 1547.17 428.921 1540.58 426.802L1430.14 391.306C1423.58 389.195 1416.63 388.551 1409.78 389.42C1402.94 390.289 1396.37 392.65 1390.54 396.334L1295.06 456.681C1292.5 458.3 1289.59 459.3 1286.58 459.601C1283.56 459.901 1280.52 459.495 1277.68 458.414C1274.85 457.333 1272.31 455.607 1270.26 453.373C1268.22 451.139 1266.72 448.459 1265.89 445.545L1193.81 192.862C1192.65 188.811 1192.84 184.493 1194.34 180.557C1195.85 176.621 1198.58 173.277 1202.14 171.026L1307.31 104.554C1313.14 100.869 1319.71 98.509 1326.55 97.6401C1333.4 96.7712 1340.35 97.4147 1346.91 99.5253L1457.35 135.023C1463.94 137.141 1470.92 137.782 1477.78 136.899C1484.65 136.016 1491.24 133.631 1497.08 129.915L1576.16 79.5898C1578.72 77.9599 1581.63 76.9505 1584.65 76.642C1587.67 76.3335 1590.72 76.7343 1593.56 77.8127C1596.39 78.8911 1598.94 80.6171 1600.99 82.8534C1603.05 85.0898 1604.55 87.7746 1605.38 90.6942L1677.45 343.34C1678.6 347.382 1678.42 351.689 1676.93 355.618C1675.44 359.548 1672.71 362.89 1669.17 365.147Z" stroke="#363A5A" stroke-width="6" stroke-miterlimit="10"/>
<path d="M1337.58 333.759C1337.58 333.759 1338.94 333.406 1341.22 332.739" stroke="#363A5A" stroke-width="4" stroke-linecap="round" stroke-linejoin="round"/>
<path d="M1352.21 329.222C1368.25 323.639 1391.8 313.394 1392.09 301.278C1392.46 285.18 1314.45 204.641 1356.39 199.773C1496.42 183.519 1433.68 299.987 1497.55 297.384C1524.53 296.285 1474.63 259.189 1551.72 232.375C1563.15 228.4 1557.47 199.336 1553.64 184.14" stroke="#363A5A" stroke-width="4" stroke-linecap="round" stroke-linejoin="round" stroke-dasharray="10.18 15.26"/>
<path d="M1552.15 178.563C1551.51 176.283 1551.09 174.936 1551.09 174.936" stroke="#363A5A" stroke-width="4" stroke-linecap="round" stroke-linejoin="round"/>
<path opacity="0.22" d="M1332.7 372.148C1352.82 372.148 1369.12 355.841 1369.12 335.726C1369.12 315.611 1352.82 299.304 1332.7 299.304C1312.59 299.304 1296.28 315.611 1296.28 335.726C1296.28 355.841 1312.59 372.148 1332.7 372.148Z" fill="#3DC0CB"/>
<path d="M1332.7 356.847C1344.37 356.847 1353.83 347.39 1353.83 335.726C1353.83 324.061 1344.37 314.605 1332.7 314.605C1321.04 314.605 1311.58 324.061 1311.58 335.726C1311.58 347.39 1321.04 356.847 1332.7 356.847Z" fill="#F3DF24"/>
<path d="M1332.7 314.605C1329.47 314.603 1326.27 315.347 1323.37 316.779C1320.46 318.211 1317.93 320.292 1315.96 322.861C1320.11 320.039 1325.13 318.789 1330.12 319.334C1335.11 319.879 1339.75 322.184 1343.19 325.837C1346.63 329.489 1348.67 334.249 1348.92 339.263C1349.17 344.277 1347.63 349.217 1344.57 353.197C1348.31 350.659 1351.13 346.989 1352.63 342.728C1354.13 338.466 1354.22 333.837 1352.89 329.519C1351.56 325.201 1348.89 321.423 1345.25 318.739C1341.62 316.055 1337.22 314.606 1332.7 314.605H1332.7Z" fill="#F3DF24"/>
<path d="M1332.7 356.847C1344.37 356.847 1353.83 347.39 1353.83 335.726C1353.83 324.061 1344.37 314.605 1332.7 314.605C1321.04 314.605 1311.58 324.061 1311.58 335.726C1311.58 347.39 1321.04 356.847 1332.7 356.847Z" stroke="#090F43" stroke-width="6" stroke-miterlimit="10"/>
<path d="M1342.33 147.286L1402.91 158.768L1388.99 134.317L1338.86 116.825C1335.96 115.814 1332.89 115.383 1329.82 115.559C1326.75 115.734 1323.75 116.512 1320.99 117.847L1210.82 184.765C1210.23 185.142 1209.78 185.699 1209.53 186.355C1209.28 187.01 1209.24 187.729 1209.43 188.404L1227.2 250.688L1275.63 238.712L1266.74 203.031L1342.33 147.286Z" fill="#F5F6E2" stroke="#090F43" stroke-width="4" stroke-linecap="round" stroke-linejoin="round"/>
<path d="M1438.33 301.529L1472.89 310.232L1489.61 348.535L1452.37 342.431L1438.33 301.529Z" fill="#F5F6E2" stroke="#090F43" stroke-width="4" stroke-linecap="round" stroke-linejoin="round"/>
<path d="M1551.73 186.789C1523.65 186.789 1500.89 178.645 1500.89 168.598C1500.89 158.552 1523.65 150.407 1551.73 150.407C1579.82 150.407 1602.58 158.552 1602.58 168.598C1602.58 178.645 1579.82 186.789 1551.73 186.789Z" fill="#EAF4F7"/>
<path d="M1567.69 289.857L1631.12 262.246L1656.18 338.585L1553.47 396.954L1534.64 343.824L1574.8 321.233L1567.69 289.857Z" fill="white" stroke="#090F43" stroke-width="4" stroke-linecap="round" stroke-linejoin="round"/>
<path d="M1626.6 79.902C1626.6 36.2188 1591.14 1.04256 1548.18 3.08463C1509.71 4.91358 1476.91 37.685 1476.91 77.2432C1476.91 134.467 1551.73 178.591 1551.73 178.591C1551.73 178.591 1626.6 134.467 1626.6 79.902Z" fill="#F3DF24"/>
<path d="M1579.06 156.448C1573.16 161.051 1565.89 163.539 1558.4 163.513C1550.92 163.487 1543.66 160.949 1537.8 156.306C1515.65 138.772 1483.63 106.937 1483.63 69.4991C1483.68 53.6032 1488.94 38.1625 1498.6 25.5363C1485.32 38.948 1476.91 57.2254 1476.91 77.2434C1476.91 134.468 1551.73 178.591 1551.73 178.591C1551.73 178.591 1582.25 160.604 1604.31 133.397C1596.53 141.742 1588.08 149.451 1579.06 156.448Z" fill="#F3DF24"/>
<path d="M1548.18 3.08463C1534.69 3.77958 1521.65 8.15012 1510.46 15.7233C1519.27 11.4765 1528.84 9.03898 1538.6 8.55485C1581.57 6.51429 1617.02 41.6883 1617.02 85.3723C1617.02 128.156 1571 164.519 1551.13 178.228C1551.52 178.465 1551.73 178.594 1551.73 178.594C1551.73 178.594 1626.59 134.467 1626.59 79.902C1626.6 36.2189 1591.14 1.04256 1548.18 3.08463Z" fill="#F3DF24"/>
<path d="M1551.73 109.32C1545.64 109.32 1539.69 107.513 1534.62 104.129C1529.56 100.745 1525.61 95.934 1523.28 90.3057C1520.95 84.6774 1520.33 78.4841 1521.52 72.5091C1522.71 66.534 1525.65 61.0456 1529.95 56.7378C1534.26 52.43 1539.75 49.4963 1545.72 48.3077C1551.7 47.1192 1557.89 47.7291 1563.52 50.0604C1569.15 52.3917 1573.96 56.3397 1577.34 61.405C1580.73 66.4704 1582.54 72.4257 1582.54 78.5178C1582.54 86.6868 1579.29 94.5213 1573.51 100.298C1567.74 106.074 1559.9 109.32 1551.73 109.32Z" fill="white"/>
<path d="M1551.73 109.32C1545.64 109.32 1539.69 107.513 1534.62 104.129C1529.56 100.745 1525.61 95.934 1523.28 90.3057C1520.95 84.6774 1520.33 78.4841 1521.52 72.5091C1522.71 66.534 1525.65 61.0456 1529.95 56.7378C1534.26 52.43 1539.75 49.4963 1545.72 48.3077C1551.7 47.1192 1557.89 47.7291 1563.52 50.0604C1569.15 52.3917 1573.96 56.3397 1577.34 61.405C1580.73 66.4704 1582.54 72.4257 1582.54 78.5178C1582.54 86.6868 1579.29 94.5213 1573.51 100.298C1567.74 106.074 1559.9 109.32 1551.73 109.32Z" stroke="#363A5A" stroke-width="6" stroke-miterlimit="10"/>
<path d="M1626.6 79.902C1626.6 36.2188 1591.14 1.04256 1548.18 3.08463C1509.71 4.91358 1476.91 37.685 1476.91 77.2432C1476.91 134.467 1551.73 178.591 1551.73 178.591C1551.73 178.591 1626.6 134.467 1626.6 79.902Z" stroke="#363A5A" stroke-width="6" stroke-linecap="round" stroke-linejoin="round"/>
</svg>
